<mxfile host="app.diagrams.net" modified="2023-04-22T16:42:23.913Z" agent="Mozilla/5.0 (Windows NT 10.0; Win64; x64) AppleWebKit/537.36 (KHTML, like Gecko) Chrome/112.0.0.0 Safari/537.36" etag="EHdf9-V2DXz5326lNUMM" version="21.2.1" type="github">
  <diagram id="prtHgNgQTEPvFCAcTncT" name="Page-1">
    <mxGraphModel dx="1593" dy="982" grid="1" gridSize="10" guides="1" tooltips="1" connect="1" arrows="1" fold="1" page="1" pageScale="1" pageWidth="827" pageHeight="1169" math="0" shadow="0">
      <root>
        <mxCell id="0" />
        <mxCell id="1" parent="0" />
        <mxCell id="hV24QLvNKU-Zuwr6iSLv-1" value="" style="verticalLabelPosition=bottom;verticalAlign=top;html=1;shadow=0;dashed=0;strokeWidth=1;shape=mxgraph.android.phone2;fillColor=#ffffff;strokeColor=#c0c0c0;" vertex="1" parent="1">
          <mxGeometry x="230" y="215" width="390" height="710" as="geometry" />
        </mxCell>
        <mxCell id="hV24QLvNKU-Zuwr6iSLv-2" value="" style="verticalLabelPosition=bottom;verticalAlign=top;html=1;shadow=0;dashed=0;strokeWidth=1;shape=mxgraph.android.phone2;fillColor=#ffffff;strokeColor=#c0c0c0;" vertex="1" parent="1">
          <mxGeometry x="663" y="215" width="390" height="710" as="geometry" />
        </mxCell>
        <mxCell id="hV24QLvNKU-Zuwr6iSLv-4" value="&lt;font style=&quot;vertical-align: inherit ; font-size: 25px&quot;&gt;&lt;font style=&quot;vertical-align: inherit ; font-size: 25px&quot;&gt;&lt;font style=&quot;vertical-align: inherit ; font-size: 25px&quot;&gt;&lt;font style=&quot;vertical-align: inherit ; font-size: 25px&quot;&gt;INICIAR SESION&lt;/font&gt;&lt;/font&gt;&lt;/font&gt;&lt;/font&gt;" style="text;html=1;strokeColor=none;fillColor=none;align=center;verticalAlign=middle;whiteSpace=wrap;rounded=0;" vertex="1" parent="1">
          <mxGeometry x="303" y="180" width="270" height="20" as="geometry" />
        </mxCell>
        <mxCell id="hV24QLvNKU-Zuwr6iSLv-5" value="&lt;font style=&quot;vertical-align: inherit ; font-size: 25px&quot;&gt;&lt;font style=&quot;vertical-align: inherit ; font-size: 25px&quot;&gt;&lt;font style=&quot;vertical-align: inherit ; font-size: 25px&quot;&gt;&lt;font style=&quot;vertical-align: inherit ; font-size: 25px&quot;&gt;REGISTRO&lt;/font&gt;&lt;/font&gt;&lt;/font&gt;&lt;/font&gt;" style="text;html=1;strokeColor=none;fillColor=none;align=center;verticalAlign=middle;whiteSpace=wrap;rounded=0;" vertex="1" parent="1">
          <mxGeometry x="741" y="184" width="270" height="20" as="geometry" />
        </mxCell>
        <mxCell id="hV24QLvNKU-Zuwr6iSLv-6" value="Registro" style="html=1;shadow=0;dashed=0;shape=mxgraph.bootstrap.rrect;align=center;rSize=5;strokeColor=none;fillColor=#EFAC43;fontColor=#ffffff;fontStyle=1;whiteSpace=wrap;fontSize=13;" vertex="1" parent="1">
          <mxGeometry x="270" y="750" width="150" height="20" as="geometry" />
        </mxCell>
        <mxCell id="hV24QLvNKU-Zuwr6iSLv-7" value="Recordar contrase침a" style="html=1;shadow=0;dashed=0;shape=mxgraph.bootstrap.rrect;align=center;rSize=5;strokeColor=none;fillColor=#58B957;fontColor=#ffffff;fontStyle=1;whiteSpace=wrap;fontSize=13;" vertex="1" parent="1">
          <mxGeometry x="450" y="750" width="142" height="20" as="geometry" />
        </mxCell>
        <mxCell id="hV24QLvNKU-Zuwr6iSLv-9" value="&lt;font style=&quot;font-size: 24px&quot;&gt;Acercampo&lt;/font&gt;" style="text;html=1;strokeColor=none;fillColor=none;align=center;verticalAlign=middle;whiteSpace=wrap;rounded=0;" vertex="1" parent="1">
          <mxGeometry x="362" y="505" width="150" height="40" as="geometry" />
        </mxCell>
        <mxCell id="hV24QLvNKU-Zuwr6iSLv-10" value="Nombres&amp;nbsp;" style="html=1;shadow=0;dashed=0;shape=mxgraph.bootstrap.roundedButton;fillColor=#ffffff;align=center;strokeColor=#dddddd;fontColor=#3D8BCD;spacingRight=10;whiteSpace=wrap;fontSize=14;" vertex="1" parent="1">
          <mxGeometry x="732" y="310" width="270" height="30" as="geometry" />
        </mxCell>
        <mxCell id="hV24QLvNKU-Zuwr6iSLv-11" value="" style="html=1;shadow=0;dashed=0;shape=mxgraph.bootstrap.arrow;strokeColor=#3D8BCD;" vertex="1" parent="hV24QLvNKU-Zuwr6iSLv-10">
          <mxGeometry x="1" y="0.5" width="16" height="4" relative="1" as="geometry">
            <mxPoint x="-28" y="-2" as="offset" />
          </mxGeometry>
        </mxCell>
        <mxCell id="hV24QLvNKU-Zuwr6iSLv-12" value="Apellidos&amp;nbsp;" style="html=1;shadow=0;dashed=0;shape=mxgraph.bootstrap.roundedButton;fillColor=#ffffff;align=center;strokeColor=#dddddd;fontColor=#3D8BCD;spacingRight=10;whiteSpace=wrap;fontSize=14;" vertex="1" parent="1">
          <mxGeometry x="732" y="357" width="270" height="30" as="geometry" />
        </mxCell>
        <mxCell id="hV24QLvNKU-Zuwr6iSLv-13" value="" style="html=1;shadow=0;dashed=0;shape=mxgraph.bootstrap.arrow;strokeColor=#3D8BCD;" vertex="1" parent="hV24QLvNKU-Zuwr6iSLv-12">
          <mxGeometry x="1" y="0.5" width="16" height="4" relative="1" as="geometry">
            <mxPoint x="-28" y="-2" as="offset" />
          </mxGeometry>
        </mxCell>
        <mxCell id="hV24QLvNKU-Zuwr6iSLv-14" value="Correo electronico" style="html=1;shadow=0;dashed=0;shape=mxgraph.bootstrap.roundedButton;fillColor=#ffffff;align=center;strokeColor=#dddddd;fontColor=#3D8BCD;spacingRight=10;whiteSpace=wrap;fontSize=14;" vertex="1" parent="1">
          <mxGeometry x="732" y="446" width="270" height="30" as="geometry" />
        </mxCell>
        <mxCell id="hV24QLvNKU-Zuwr6iSLv-15" value="" style="html=1;shadow=0;dashed=0;shape=mxgraph.bootstrap.arrow;strokeColor=#3D8BCD;" vertex="1" parent="hV24QLvNKU-Zuwr6iSLv-14">
          <mxGeometry x="1" y="0.5" width="16" height="4" relative="1" as="geometry">
            <mxPoint x="-28" y="-2" as="offset" />
          </mxGeometry>
        </mxCell>
        <mxCell id="hV24QLvNKU-Zuwr6iSLv-16" value="Celular" style="html=1;shadow=0;dashed=0;shape=mxgraph.bootstrap.roundedButton;fillColor=#ffffff;align=center;strokeColor=#dddddd;fontColor=#3D8BCD;spacingRight=10;whiteSpace=wrap;fontSize=14;" vertex="1" parent="1">
          <mxGeometry x="732" y="485" width="270" height="30" as="geometry" />
        </mxCell>
        <mxCell id="hV24QLvNKU-Zuwr6iSLv-17" value="" style="html=1;shadow=0;dashed=0;shape=mxgraph.bootstrap.arrow;strokeColor=#3D8BCD;" vertex="1" parent="hV24QLvNKU-Zuwr6iSLv-16">
          <mxGeometry x="1" y="0.5" width="16" height="4" relative="1" as="geometry">
            <mxPoint x="-28" y="-2" as="offset" />
          </mxGeometry>
        </mxCell>
        <mxCell id="hV24QLvNKU-Zuwr6iSLv-18" value="Contrase침a" style="html=1;shadow=0;dashed=0;shape=mxgraph.bootstrap.roundedButton;fillColor=#ffffff;align=center;strokeColor=#dddddd;fontColor=#3D8BCD;spacingRight=10;whiteSpace=wrap;fontSize=14;" vertex="1" parent="1">
          <mxGeometry x="732" y="530" width="270" height="30" as="geometry" />
        </mxCell>
        <mxCell id="hV24QLvNKU-Zuwr6iSLv-19" value="" style="html=1;shadow=0;dashed=0;shape=mxgraph.bootstrap.arrow;strokeColor=#3D8BCD;" vertex="1" parent="hV24QLvNKU-Zuwr6iSLv-18">
          <mxGeometry x="1" y="0.5" width="16" height="4" relative="1" as="geometry">
            <mxPoint x="-28" y="-2" as="offset" />
          </mxGeometry>
        </mxCell>
        <mxCell id="hV24QLvNKU-Zuwr6iSLv-20" value="Confirmar contrase침a" style="html=1;shadow=0;dashed=0;shape=mxgraph.bootstrap.roundedButton;fillColor=#ffffff;align=center;strokeColor=#dddddd;fontColor=#3D8BCD;spacingRight=10;whiteSpace=wrap;fontSize=14;" vertex="1" parent="1">
          <mxGeometry x="732" y="580" width="270" height="30" as="geometry" />
        </mxCell>
        <mxCell id="hV24QLvNKU-Zuwr6iSLv-21" value="" style="html=1;shadow=0;dashed=0;shape=mxgraph.bootstrap.arrow;strokeColor=#3D8BCD;" vertex="1" parent="hV24QLvNKU-Zuwr6iSLv-20">
          <mxGeometry x="1" y="0.5" width="16" height="4" relative="1" as="geometry">
            <mxPoint x="-28" y="-2" as="offset" />
          </mxGeometry>
        </mxCell>
        <mxCell id="hV24QLvNKU-Zuwr6iSLv-22" value="Identificaci칩n" style="html=1;shadow=0;dashed=0;shape=mxgraph.bootstrap.roundedButton;fillColor=#ffffff;align=center;strokeColor=#dddddd;fontColor=#3D8BCD;spacingRight=10;whiteSpace=wrap;fontSize=14;" vertex="1" parent="1">
          <mxGeometry x="732" y="400" width="270" height="30" as="geometry" />
        </mxCell>
        <mxCell id="hV24QLvNKU-Zuwr6iSLv-23" value="" style="html=1;shadow=0;dashed=0;shape=mxgraph.bootstrap.arrow;strokeColor=#3D8BCD;" vertex="1" parent="hV24QLvNKU-Zuwr6iSLv-22">
          <mxGeometry x="1" y="0.5" width="16" height="4" relative="1" as="geometry">
            <mxPoint x="-28" y="-2" as="offset" />
          </mxGeometry>
        </mxCell>
        <mxCell id="hV24QLvNKU-Zuwr6iSLv-24" value="Acepto terminos y condiciones" style="text;html=1;strokeColor=none;fillColor=none;align=center;verticalAlign=middle;whiteSpace=wrap;rounded=0;fontSize=15;fontStyle=4" vertex="1" parent="1">
          <mxGeometry x="781" y="679" width="230" height="20" as="geometry" />
        </mxCell>
        <mxCell id="hV24QLvNKU-Zuwr6iSLv-25" value="" style="fillColor=#36B37E;strokeColor=none;rounded=1;arcSize=50;fontSize=14;" vertex="1" parent="1">
          <mxGeometry x="732" y="679" width="40" height="20" as="geometry" />
        </mxCell>
        <mxCell id="hV24QLvNKU-Zuwr6iSLv-26" value="" style="shape=ellipse;strokeColor=none;fillColor=#ffffff" vertex="1" parent="hV24QLvNKU-Zuwr6iSLv-25">
          <mxGeometry x="1" y="0.5" width="16" height="16" relative="1" as="geometry">
            <mxPoint x="-18" y="-8" as="offset" />
          </mxGeometry>
        </mxCell>
        <mxCell id="hV24QLvNKU-Zuwr6iSLv-27" value="" style="html=1;shadow=0;dashed=0;shape=mxgraph.atlassian.check;strokeColor=#ffffff;strokeWidth=2" vertex="1" parent="hV24QLvNKU-Zuwr6iSLv-25">
          <mxGeometry y="0.5" width="10" height="8" relative="1" as="geometry">
            <mxPoint x="6" y="-5" as="offset" />
          </mxGeometry>
        </mxCell>
        <mxCell id="hV24QLvNKU-Zuwr6iSLv-28" value="" style="verticalLabelPosition=bottom;verticalAlign=top;html=1;shadow=0;dashed=0;strokeWidth=1;shape=mxgraph.ios.iDeleteApp;fillColor=#cccccc;fillColor2=#000000;strokeColor=#ffffff;fontSize=14;" vertex="1" parent="1">
          <mxGeometry x="721.5" y="729.5" width="61" height="56" as="geometry" />
        </mxCell>
        <mxCell id="hV24QLvNKU-Zuwr6iSLv-29" value="" style="verticalLabelPosition=bottom;verticalAlign=top;html=1;shadow=0;dashed=0;strokeWidth=1;shape=mxgraph.ios.iCheckIcon;fillColor=#e8878E;fillColor2=#BD1421;strokeColor=#ffffff;fontSize=14;" vertex="1" parent="1">
          <mxGeometry x="937.5" y="729.5" width="60" height="57" as="geometry" />
        </mxCell>
        <mxCell id="hV24QLvNKU-Zuwr6iSLv-30" value="Cancelar" style="text;html=1;strokeColor=none;fillColor=none;align=center;verticalAlign=middle;whiteSpace=wrap;rounded=0;fontSize=14;" vertex="1" parent="1">
          <mxGeometry x="732" y="793.5" width="40" height="20" as="geometry" />
        </mxCell>
        <mxCell id="hV24QLvNKU-Zuwr6iSLv-31" value="Aceptar" style="text;html=1;strokeColor=none;fillColor=none;align=center;verticalAlign=middle;whiteSpace=wrap;rounded=0;fontSize=14;" vertex="1" parent="1">
          <mxGeometry x="948" y="796" width="40" height="20" as="geometry" />
        </mxCell>
        <mxCell id="hV24QLvNKU-Zuwr6iSLv-34" value="Email" style="html=1;shadow=0;dashed=0;shape=mxgraph.bootstrap.roundedButton;fillColor=#ffffff;align=center;strokeColor=#dddddd;fontColor=#3D8BCD;spacingRight=10;whiteSpace=wrap;fontSize=14;" vertex="1" parent="1">
          <mxGeometry x="302" y="570" width="270" height="30" as="geometry" />
        </mxCell>
        <mxCell id="hV24QLvNKU-Zuwr6iSLv-35" value="" style="html=1;shadow=0;dashed=0;shape=mxgraph.bootstrap.arrow;strokeColor=#3D8BCD;" vertex="1" parent="hV24QLvNKU-Zuwr6iSLv-34">
          <mxGeometry x="1" y="0.5" width="16" height="4" relative="1" as="geometry">
            <mxPoint x="-28" y="-2" as="offset" />
          </mxGeometry>
        </mxCell>
        <mxCell id="hV24QLvNKU-Zuwr6iSLv-36" value="Contrase침a" style="html=1;shadow=0;dashed=0;shape=mxgraph.bootstrap.roundedButton;fillColor=#ffffff;align=center;strokeColor=#dddddd;fontColor=#3D8BCD;spacingRight=10;whiteSpace=wrap;fontSize=14;" vertex="1" parent="1">
          <mxGeometry x="302" y="618" width="270" height="30" as="geometry" />
        </mxCell>
        <mxCell id="hV24QLvNKU-Zuwr6iSLv-37" value="" style="html=1;shadow=0;dashed=0;shape=mxgraph.bootstrap.arrow;strokeColor=#3D8BCD;" vertex="1" parent="hV24QLvNKU-Zuwr6iSLv-36">
          <mxGeometry x="1" y="0.5" width="16" height="4" relative="1" as="geometry">
            <mxPoint x="-28" y="-2" as="offset" />
          </mxGeometry>
        </mxCell>
        <mxCell id="hV24QLvNKU-Zuwr6iSLv-39" value="" style="shape=image;verticalLabelPosition=bottom;labelBackgroundColor=default;verticalAlign=top;aspect=fixed;imageAspect=0;image=https://images.freeimages.com/images/premium/previews/3572/35723822-agricultural-field-of-crops.jpg;" vertex="1" parent="1">
          <mxGeometry x="290" y="305" width="270" height="180" as="geometry" />
        </mxCell>
        <mxCell id="hV24QLvNKU-Zuwr6iSLv-40" value="" style="shape=image;verticalLabelPosition=bottom;labelBackgroundColor=default;verticalAlign=top;aspect=fixed;imageAspect=0;image=data:image/png,iVBORw0KGgoAAAANSUhEUgAAASQAAAAzCAYAAAA+XXV7AAAAAXNSR0IArs4c6QAAAARnQU1BAACxjwv8YQUAAAAJcEhZcwAADsMAAA7DAcdvqGQAABY3SURBVHhe7V1rrCRHeT39nJk7cx+760W292WzZG3WBoLBGMsGEwNxBDghGDnimT8gJYqUKFISKZEihUgI5QeKoig/EuWBAkKCECFDIgURKYQYMA42drzY6+fuxvZ6d713d++dO3Nnerqrc07V9Mzch9ePIODOrXP360d1VfWs6utT56uu7g5KAi+G9TmCcRI3UZZGS7dDuJWWExnXYJjRw8NjejC6rHXRr7vGN+WBjXj5hBQ48jE8YVmGCHksMFyUORBrZ/hDSq6r7Q14oXQPD4+tA2OZwNFDALIB16Xd1x6sDeEyvShePiGVBblGPwMoSEg5Tyo+KvISkc5PrnHZHem8xN/h4eGxhaCrWxbyCrcMQk6IQoOQiSKm0FISdxwNOLwEMnjphKRsVDz9LEM3iHF6FXimXeLMao4LPUMrEETMxh8wrpAqari1EZO/1MPDYytBV3ZcGiRUI0Vu0Gw2sLsV4/JmiP2zAXalJepkJxGURUUElke4tulryMIiKM3FCUlKCBojop3PY9x72uDI8308upzj2XaAlSxEu2/QYy05GdKdoUSe5yyik2+s3lORh8fWR0ROiHiNR7yi60mCHc0UO9MA+xdSvGFHiRv3JDg4J+VUEY/jEYRVODcR0g2xOSFVjKEjLN/n6shKgX9+5AIe+N8Qz3ZynGVlZZAgNMwcxih40lLjS3aMiRAXcRU4SluDTTjKw8Nji0EqycZAEh60hGQTWoIqsbtW4qrdNfzy61u4dU+Ipo4pN6MsW2ZYw3jttjcSUpWH0JGlQYnvninw+cdW8Z9Pr6BezKOMAgyohoIyt4RUMlYrWM4R0trqNOjt4eExjSAhkSQ06hNYonHjRrrki4ILUzB8M3jPVQ3ccbCBQw0eoyiKyBGWliz1cGuCczZVSAq1Aiqec6sG/3Kihy8c7eKhC9Q6UQ2NImKpAU+aOZ4jGYkTi4BnskRHUuKB6hwT5/Lw8JgqDAlpdLGPQzAbmZkMRZ5hJk3wgYNNfPwwSWneIGXIVpAZcuZT0WS4FjYnpH6JPuu+63iBv3loBY+2DQknshFfxNzit6JklSQfhYMlfwijSabyb1ibRt+FDZUTo/+Ah4fHFoYjpGosqNRtdu7q8g6MJgbRJH94wc8z7T2HUvz6tSkOzlBHMXlAU15GdyOV5Gpah6IW4Dunc/z9kS6eapcISUZisYRsE9NSlkpYFbUSK7AzkuwAV8gfV5mIab1VWL/v4eGx9REYCRJHQDaEs4pJTFNiiQT1jRN93PXUKk5lxooSyynreGCCkHTE2CHoI0vAX/6wi0dWQuRRzCPSOxrEZnhGM6qNJ1OoZlhtWU7kGZqGsNwwlvtJlXl4eEwrNl7tYpWCYVSWJHiOkujLjyzh2yfOMWRzOSRq1o4haWTJ3ggjGYUZ2kWCz/5PiX+8j4WSWRbSTMwxjTkGkyZyf3bbVlhxm5Nx45+0EfZ0Hh4eWw/VXfQXRHXVjznDihOSUlgWiMsM1+7I8OfvvgyvqRXuplcoWnKo+IWkEmC1TPG951Zx99GTdtDJHlII5qq05uhERxWqObgQTHfdZO6HvBAZeXh4bENYjnDR04OnV/C5I4voDLhvyCo8VjHLmJC4ONkJ8PUnVnGmFyCM46GUEsE4kvHw8PC4ODbyhWhkJFAYTiXpAr5xdBl3n85RmPFTb5VZDEhPD50e4IHFFO2gjrKa6Gh5y8PDw+PHA0VUi6sxvn58BWcoj+yYEcM5TXy0hCQ+Oz8o8cDpPhZ7EbJIM69FZhoNFyF5heTh4fH/BXmEbFTQyloN953s4fGVHEb7QxllCalgvqcuFDjyXB+DrI+w0CzK0I4HOak1Elwe2wF2UJAd0Us1D48XhfxEaigYzmkssJSnuIcqaalnkDN006i0JaSc/vfkuQGOLWkGtm7ITSqiIXV5bCNMtr+Hx48PIiRNotbdtRWT4EdnMiz2S+RM18xtDXujy3DtqXYBhnV2tqUmNUUqRCYbT27Seq1pZvbGVGcXw2b5vf3kLGKbbjSlD4251ltITS0n2sw0c6QywU6KC+kfmsZ/EUyWW28eP6PQw2gv06zgHhbXWv7RDxt2/9k8wjN9g4RZdSxU43dISI+fHaCfh8iZuQrUlGW87bG9sJ4UtD9pY6z3EHtUpDJJLO6Wrcc2hZ0ORBewc6rtgBEZiJ5yjuHaieUMA6bZ1KIweL5b4OlOxGCtPhpcqljNEZLMY1pADWKXY1Qpw3Q7NjTOJbMOMZEyuSeycY8KDP2EzjdSO0qjhSZHXA4Q2bspayfbemwDjPxnkksCdCiCTveomHhI8icM4gBPdUos8XAYS145iTVcDM1jGuBcgmSg1xBzbUwG9JbYV3XtmKMlCbU7eyV1ROqcRmb3nT9orTTDteyFoGHMfpAgDWPcvD/FJ95Qx007C9SCNvJwYF2rIrL15rE9MDAxTi5HaGckIzoVLUCbJGT0Vjf7KH/lDHJfj2mCWtZ1OAlipLj9UAN//PYFfIhksWO1j1gvtbIYE5Lev2cJiX5SqeXqGJmDi9Ad0+Y6iNtiU6JeM7j1YIJPXlPHh19TxxxrSCmUbJ9nM7KwrcvBjyFtH+Q5cKGdoz8Q9yhkY+OvdDpY7WYodP/fOp3HtEIvidHHYfT00Nv2JfgQSen2XQl2KUwbsoq8QKQgf1BIr3cmG83vXwPVoJseXLPYKESbMN1PqeWrXGf2fesF1XhfD2djBlFRZ/mhrzGvTGWMkYJz2x7TD91QyfoD5JlTzFJJyLhQVO9ccQyjWN87xlTBhCSXuIsiXEWXEqU/5IQeWSoL2WNR8ZiQpEHiSPIu5so2FU0HC1EPcVDYO6/Wc8hfcZBhluHXQrmMZrmKWdo8w78kLHhYTz4qpMvZ2aX42oNtfPaeU/j8wxfQDqma6gV2oI8Z08FMsMJ6umiVCh0pnaTUJZ8m5zpVts5HPbYwnMxGTp+yz87qX4eM86l7LuDLjxcYUMhLgquXiiJKcbU9F5L5m8FV57GVYHhRl+EAaRnh07fM4o7LI9x/tIPf+e9lnIha9k2hep9Vk67w/kMRDs3m7MVidAc5vvlEH4+fncEKyStJDW44EOCW3QGapLFzvQTNJEGHod9dxzM8fCGhenIvkpgL6njnlQNcu6OPY8cCPETF9cHXz6HZMTiV9ZDMsY4oxeJihi8+3scZ3RJWh7lZHOgxVYjILa/dAfzpTTVcd4kmmBB6vxHFEHe4u6YDknQebnpMDWyTcuHe5DBO0Nsa9BXienEeH7wK+OS1Dbz3ilncsreOO1/Twm+/bhY31ugTYYYr9wzwkWvquOPVTdy4t4Xbr27gjkMx3nVFHYwEkRYD1q3XS6SoUV3dtC/Gxw7twPWzDVzGzu69V8b41cMxPnS4idv21/ErV0b4GEnq1p0haj3qKxPz9zAkHJl8U7/Wd4NTBfrgIC/IP+q6yEG2eZlYFor59eexPeHGfIKywLV7m7jzqhnsYup/PbqKv/peG0+2gTfvS3HbNREVT47b9jXw5laCR0/1GIo9j/sv5KyhtIPYoQmRhyF6iabXBgzMjH08KSGhREaPDgQMF+lr9L4nz2T40v0reKZTYoFE9g6SW6twKm2Nse6QiquiJI/pgN6gXeiTaVwLoYK0HfWIcT+bms6kxra9pse2g+2cQoMDe2vYNxPh7BLwtUcKfP3pAP9x1jDco7zeU8fhnQmumY+gccgvPtXBXY8V+N5Jw8CNkltkZBkjQI0b9jY+FbiSeAgxYzH7PS+m9fMI950q8G/PDvDIcsQjARYWuA5IYWG+xgqNSwXOSprHlICd22xSoqGZ/dy1k/sTbkmqV7LJY3tCnZQ+kx7RQeQcZwKDBwd99BkynTk/QJ8yp8W0t1AZHZhJEWQGixfISnET51Zsf8ZyJUxEXyJpaKhSw0D6VpdM2zqux000bp0NWF6PLLEL1OC6juvEuSUevcF0bO7NE8M8HtMD+RvbV+pXCDUPIE0SxIzrdVdNsp2uNWEuo8eUYcOF7dggjlP6QmxbPiFDxQWJgH9x4m5y5KbASlFgoBCfPpOkepGfYwqVsfLayu+x39iarVIa7WnDruOJntGOH9hytiaPbYCQflFvyOcU3GufjjCT0AFi9kT2A0kSztynX0hoy9eck2xmHlsTjhCkg2wrMpbSm/tMTiJaDTBYjXiwxKV0jqsZ1MdRhp2zBg0WO9szuPtCG+cGBQmpxK5aiLhcxe5WiZRVsbNjfU4F2Se3dRaSlfsaBc88lDkip5iRV8xt64TO0VTIbmpPeSqrMCY1j2mAHt5vsrOLNZuEvhOqV9o7F5GUnLy2niTPoUNaQnJetLlZh/PYarAX/PCq10zshWaMG/bU8LY9XO8E+s/neJ7Es9AM8ItX1/BLrw5wy6UpUjrIfc8ZnMpTdLIA8wzN3n95A+/bB7zrQIiZkp0ZKwxK3SFjSFeyh2MHF1pJLueyXET+cyGhyEv6iJTEvBqwphJjmBeXujsnUpsw5dUYZ+V6HlMBDRftaUWYZcfmCImJSqA/oiYZbtjPWWaabHV1ex5Tg1Lhl4vbB3SAA/sS/MFN8/j0TSk+dX0DO1cG+MrRLjox8J7Ddfz+z8/hqpkA3z/Zx1ce6yPLZvD9UyWeZz1v2l/H7954CY+zriKT2LKD3zLdWctFUnaiIxW43IjnTOiFmqO0Sr4asHdUusafNGAASvdcv8/Sk/sqsgwjFSXzmAZI7MwEOQ60DGbpa2pZS0g76RQHmuwB2buVRtpJWN8Nrd/32IqoLmfdwHjidB/fohr67vkCx1ZKPN3NcXIpx+JShn+4r42vPm1wpG3wJAnq28z72QeWcKyI0csMvvpwG194tIfvnAtxdCnAPc90cC5s2NneCAsUYd8+QGuoeXIGcyfOGdy32MfD9LETQYR7lwe492wbp7IBegzdHjtX4AeLJR44F6Fb20miTGjxyPKA2kmPnZCULvZAr8fWgDSPHjuapzK6bCZEqiZVv6VPaXfyEn93pI+/eLCPHntOBJTMGmykE6gndVCJtY7gbud659g6cAPUdrY22y5l25q+Ju1Lj+QkEDIDmztOmyiSOmO3FYZLOdOYGJEU4gbLhZTZOXbPMcRvD7C00kKZLuMPf2EOv3ZlCz88XuDP7u3iB3mPIRZ9Q6Ebz6xxJmofS1BZGCEp+jYMM0GKMqafZRn3B4iSGnohzy1FtA6TnubDtq0LfXpf7KM2vH7XAH9y8yxeO8vwzdBnJKXTKMCh3REunyW92EeV1PSu+X27TyHUE3GVkQyKdA5FrYW8Pouc23ljDn2GTeyoyCUNDHhsUJtlaNWkI2nWGtBKDT5yuIXfumEB7zyY4cOva+HWA7NYWQXufnYVR1d7DN1iJGVC1R0jpqFsMYRbIKG1SEY1Ro3zJL0FmIQkx3pNMoO8xnOHtSFBuqfhJk03W3TMk9EWBvkmQIGIsX2qGf9Ng111F5KXYcp2Zo8X0zsPzkc4vDtlR5iy19Ins9n0lskm+yWPrQ6radnmdptNG2iA2arhEBHXGnzWgPfkE/c65l5lrJ2S4ZPmFA1w25UN/NE7duET181jrijxrYc7+NbxAYlOCsjNyC5Yf8EOryDJOSO1aKBA9elc1r9UvzuvPcVw7TFtkD/JjJ2xP1vPcfOr57AjoQewzUuG6QGdzj4BuUxZ/oUnCvz1AyXOUj4HZDI92+acUqxGJ1nXMzln8s6zdeAa0AXh2hbJSPWQlBTGDf9si1Y3NtyOJQ8d0fNutXiAGy43ePO87qQBPYVhWYh7nujgRFa340ga3O7rBd2MAtd6yLD+inyGpKfz0tns9sWhcmtr9PjZhSba2qbVQrD7ATusEDfs6eMzN+/EAc0nGTapJSQNEfSZ8aFF4DPfXcH95w0MezKVVU6NI2l7oxt459iKGBOS2k6kJLjUjVDD051GDsMFVU8aDRCz49KYUlYy5KIl6YytVY+GaKZ2n0o8zFmvHKxyyBFeqe+80nIePw1ovLJC5QEaO6ybJfzem3bgo9e2MFM1J9fWG6XglXawVeLdB0I0wwEGeikXvVCDn/JG7wLThskWfSEy2gjJab0zqW0aaAfzWIla6KQNdNM6llllryxg8txakGmQnLaBjITN0jymGdLY1tfyLt66O8StB5pI7LxHpg0VjyUkuWbMzK1agXcdbOB1l88iMLntFSWpI5rNv868T00DXjoZCfIVDUrG9I+0HCAxtLKHRIFb2eexDEWgL2w559CNNo/tDbmAHgwJgoSEE+JVsyE++vpLsX9en1tTBkdI8sRKr0MztpMgxL5WiDtfG+OyuD0kHWbZxHQfRLrJPgrgsa3gXsbO9jf6XhvNRPZhWZncz97tt1vOPLYv5B8RmcaKmiBCkwr6fVc08da9IVJqbU2QFdFUY0xkl8pxXIKGON/2KoOPv/ESXBoNuFfaCWlrLNTs2fHNWJVcbx7TjCHNaDXqkLi22/QHDYBz0+4N0za3V4rNPM7bT9sm9yahu6q60ZGUy7h+r8Hth+uYsfMb6QO2gKSNpaJJQnLQ8Vl2dXf+XAMfOJRgNqYMlwS3Mrwy3TqRzNLgpe7OjH9IZR7TjaoDG/HRhAdN+pJLfyF7JZj0Mm8/DbOvKtrE9LI1mctVtbHyl0iyAa7bGeCjh2dxdbN0D9MqB8tNws7Udr1ZYSvSd7eDQmRT4JG2wece7OJfjwX2O9zkOZtHCskNc1dONbld/fAhJkbZPbYyJtvVtXU0fMfReJyIoTzlt33/EQ9IKY2OKdSvsMYn1vnLi0IVjk7o8ZMEicWu7HItlDZqavpBwIAskXOUqzBxgWvmEvzmG2u4ZQ9FTihRoyhLQz4K5bjrFhsJCfb9xXS0sMBybnC6m+CrR1bxT090cIZ0VZaa1u9m7Lrp/arE7TpwZ02CJ6TpgNp03K4iGxEPm38i1RGS/Md+zoYHJ8lqDE9IWxFSOmortx7DNjUxuuzpG6ne9BAHyLJlXLd7Br/xhjpuuazEjCZlB27Ix9GS9RpbTO1qCcm1ryMkPVktd3EExaxFgHNdg38/2cXfPryM40szCKMUmd6Dy1z6bfq+YDXD182yHVZp4QlpOuC8YxKupTeHxo5EWiMi2lQhab2xXo+fZWxsq4qQXFu7kC1hFHVJ3MW7D9TwwavncfWcXlMrXuCfJRgWGpPECBsISSGb8rsvRvAETCwY5y2SdX50Afjm0wEePdnGIkmqnUXoFmA4VzCY0xB3RUgEy21yPo8tC3rFy2rQsR+47cnCSqwcxGbw2AJYr4wqhFGEJI7QokSaiQos1Eoc2hXg7fubeMurUuxOjX1ntnsjKP1I1VSPIq3DBCExHOPSqiKuRUju7X5OhouklONsL8DJjsGxJYPjiwFOdXOcKfo4n/Us87nnpJzzOQm3+Yk9thrYmCNN/nJwsTLOTzy2Biwh6d9kk7IJG/U65lt1XMbtfU2DQ5dEONAscUkjRCNhUMb8hn96VlKRl8NwVNv6x9gPNiUkQTf0bYIhIdnZlComOVZKO2HVBOhkJbq5QY9pmRk+71bBFSEm0jy2OEaN6uExQkSFVItDzJBrmuSZZlIiphyywRJNn2EXu+iVRpZXrB9VwqXyKW0D/wfrg9alxFkzfAAAAABJRU5ErkJggg==;" vertex="1" parent="1">
          <mxGeometry x="290" y="660" width="292" height="51" as="geometry" />
        </mxCell>
      </root>
    </mxGraphModel>
  </diagram>
</mxfile>
